<svg xmlns="http://www.w3.org/2000/svg" xmlns:xlink="http://www.w3.org/1999/xlink" version="1.1"
    viewBox="0 0 512 512">
    <path style="fill:#82E1E1;"
        d="M512,256.264c-0.12,119.17-81.667,219.273-192,247.671V280H11.447c-5.89,0-10.773-4.6-11.086-10.482  C0.124,265.042,0,260.536,0,256C0,114.616,114.615,0,255.999,0C397.14,0,512.142,115.123,512,256.264z" />
    <path style="fill:#50C8C8;"
        d="M460,380H150c-5.523,0-10-4.477-10-10V218.876H2.689C20.674,95.087,127.225,0,256,0  c25.732,0,50.571,3.813,74,10.877V130h130c5.523,0,10,4.477,10,10v230C470,375.523,465.523,380,460,380z" />
    <path style="fill:#FF784B;"
        d="M330,10.877V170c0,5.523-4.477,10-10,10H11.472C43.845,75.726,141.079,0,256,0  C281.732,0,306.571,3.813,330,10.877z" />
    <path style="fill:#FF5019;"
        d="M199.997,124.999v10c0,2.761-2.239,5-5,5H85c-2.761,0-5-2.239-5-5v-10c0-2.761,2.239-5,5-5h109.997  C197.758,119.999,199.997,122.238,199.997,124.999z M274.998,39.999H118.549c-9.52,6.071-18.604,12.761-27.212,20h183.661  c2.761,0,5-2.239,5-5v-10C279.998,42.238,277.76,39.999,274.998,39.999z M274.998,79.999H70.109  c-6.028,6.364-11.724,13.043-17.079,20h221.969c2.761,0,5-2.239,5-5v-10C279.998,82.238,277.76,79.999,274.998,79.999z" />
    <path style="fill:#FFEB50;"
        d="M470,165.828v165.296c0,5.523-4.477,10-10,10H150c-5.523,0-10-4.477-10-10v-230  c0-5.523,4.477-10,10-10h259.194C418.252,78.347,433.146,70,450,70c27.614,0,50,22.386,50,50  C500,140.501,487.656,158.111,470,165.828z" />
    <path style="fill:#F2C230;"
        d="M473.346,128.977c2.812,2.812,2.812,7.386,0,10.197l-4.077,4.077c-2.812,2.812-7.386,2.812-10.197,0  l-8.977-8.977l-8.977,8.977c-2.812,2.812-7.386,2.812-10.197,0l-4.077-4.077c-2.812-2.812-2.812-7.386,0-10.197l8.977-8.977  l-8.977-8.977c-2.812-2.812-2.812-7.386,0-10.197l4.077-4.077c2.812-2.812,7.386-2.812,10.197,0l8.977,8.977l8.977-8.977  c2.812-2.812,7.386-2.812,10.197,0l4.077,4.077c2.812,2.812,2.812,7.386,0,10.197L464.368,120L473.346,128.977z" />
    <path style="fill:#F7D139;"
        d="M326.884,222.772l-27.634,9.827c-3.94,1.401-5.804,5.901-4.009,9.678l12.591,26.489  c2.851,5.997-3.406,12.253-9.402,9.402l-26.489-12.592c-3.776-1.795-8.277,0.069-9.678,4.009l-9.827,27.634  c-2.225,6.256-11.072,6.256-13.297,0l-9.827-27.634c-1.401-3.94-5.901-5.804-9.678-4.009l-26.489,12.592  c-5.997,2.851-12.253-3.406-9.402-9.402l12.591-26.489c1.795-3.776-0.069-8.277-4.009-9.678l-27.634-9.827  c-6.256-2.225-6.256-11.072,0-13.297l27.634-9.827c3.94-1.401,5.804-5.901,4.009-9.678l-12.591-26.489  c-2.85-5.997,3.406-12.253,9.402-9.402l26.489,12.591c3.777,1.795,8.277-0.069,9.678-4.009l9.827-27.634  c2.225-6.256,11.072-6.256,13.297,0l9.827,27.634c1.401,3.94,5.901,5.804,9.678,4.009l26.489-12.591  c5.997-2.851,12.253,3.405,9.402,9.402l-12.591,26.489c-1.795,3.777,0.069,8.277,4.009,9.678l27.634,9.827  C333.14,211.7,333.14,220.547,326.884,222.772z M425,166.124h-80c-2.761,0-5,2.239-5,5v10c0,2.761,2.239,5,5,5h80  c2.761,0,5-2.239,5-5v-10C430,168.362,427.761,166.124,425,166.124z M425,206.124h-80c-2.761,0-5,2.239-5,5v10c0,2.761,2.239,5,5,5  h80c2.761,0,5-2.239,5-5v-10C430,208.362,427.761,206.124,425,206.124z M425,246.124h-80c-2.761,0-5,2.239-5,5v10  c0,2.761,2.239,5,5,5h80c2.761,0,5-2.239,5-5v-10C430,248.362,427.761,246.124,425,246.124z" />
    <path style="fill:#F0FAA0;"
        d="M330,336.704v164.419C306.571,508.187,281.732,512,256,512C119.116,512,7.328,404.566,0.349,269.419  C1.488,265.149,5.371,262,10,262h259.194c9.058-12.776,23.952-21.124,40.806-21.124c27.614,0,50,22.386,50,50  C360,311.377,347.656,328.987,330,336.704z" />
    <g>
        <path style="fill:#E6EB6E;"
            d="M215,330c-41.421,0-75,33.579-75,75s33.579,75,75,75s75-33.579,75-75S256.421,330,215,330z    M187.25,365c6.766,0,12.25,5.484,12.25,12.25s-5.484,12.25-12.25,12.25S175,384.016,175,377.25S180.484,365,187.25,365z    M214.965,419.31l-23.186,23.186c-2.812,2.812-7.386,2.812-10.197,0l-4.077-4.077c-2.812-2.812-2.812-7.386,0-10.197l23.186-23.186   l37.53-37.531c2.812-2.812,7.386-2.812,10.197,0l4.077,4.077c2.812,2.812,2.812,7.386,0,10.197L214.965,419.31z M242.75,445   c-6.766,0-12.25-5.484-12.25-12.25s5.484-12.25,12.25-12.25S255,425.984,255,432.75S249.516,445,242.75,445z" />
        <path style="fill:#E6EB6E;"
            d="M333.345,299.854c2.812,2.812,2.812,7.386,0,10.197l-4.077,4.077c-2.812,2.812-7.386,2.812-10.198,0   l-8.977-8.977l-8.977,8.977c-2.812,2.812-7.386,2.812-10.197,0l-4.077-4.077c-2.812-2.812-2.812-7.386,0-10.197l8.977-8.977   l-8.977-8.977c-2.812-2.812-2.812-7.386,0-10.198l4.077-4.077c2.812-2.812,7.386-2.812,10.197,0l8.977,8.977l8.977-8.977   c2.812-2.812,7.386-2.812,10.198,0l4.077,4.077c2.812,2.812,2.812,7.386,0,10.198l-8.977,8.977L333.345,299.854z M105,400H44.323   c4.716,6.918,9.763,13.591,15.116,20H105c2.761,0,5-2.239,5-5v-10C110,402.239,107.761,400,105,400z M105,360H22.022   c3.041,6.831,6.374,13.5,9.98,20H105c2.761,0,5-2.239,5-5v-10C110,362.239,107.761,360,105,360z M105,440H78.033   c7.358,7.118,15.141,13.798,23.308,20H105c2.761,0,5-2.239,5-5v-10C110,442.239,107.761,440,105,440z" />
    </g>
</svg>