<svg xmlns="http://www.w3.org/2000/svg" xmlns:xlink="http://www.w3.org/1999/xlink" version="1.1"
    viewBox="0 0 491.52 491.52">

    <circle style="fill:#E05B49;" cx="245.76" cy="245.76" r="245.76" />
    <path style="opacity:0.1;enable-background:new    ;"
        d="M104.96,104.981v23.552l15.616,15.616v146.022  c0,1.741,0.717,3.379,1.894,4.506l15.104,15.104h-16.998v5.12L292.67,486.994c113.283-21.903,198.85-121.553,198.85-241.234  c0-13.247-1.08-26.238-3.098-38.917L386.56,104.981H104.96z" />
    <rect x="104.96" y="104.96" style="fill:#64798A;" width="281.6" height="23.557" />
    <path style="fill:#EBF0F3;"
        d="M120.561,128.514v161.651c0,3.468,2.811,6.28,6.28,6.28h237.837c3.469,0,6.28-2.812,6.28-6.28  V128.514H120.561z" />
    <rect x="120.561" y="128.512" style="fill:#E1E6E9;" width="250.399" height="9.984" />
    <rect x="220.877" y="296.443" style="fill:#3A556A;" width="49.725" height="9.262" />
    <rect x="220.877" y="305.71" style="fill:#64798A;" width="49.725" height="80.855" />
    <polygon style="fill:#3A556A;"
        points="334.091,309.776 334.091,296.444 328.971,296.444 328.971,309.776 159.766,309.776  159.766,296.444 154.646,296.444 154.646,309.776 120.561,309.776 120.561,314.896 370.961,314.896 370.961,309.776 " />
    <g>
        <rect x="144.333" y="116.736" style="fill:#FCD462;" width="34.412" height="9.329" />
        <rect x="228.557" y="116.736" style="fill:#FCD462;" width="34.412" height="9.329" />
        <rect x="312.781" y="116.736" style="fill:#FCD462;" width="34.412" height="9.329" />
    </g>
    <g>
        <polygon style="fill:#3A556A;"
            points="158.966,112.069 158.966,116.737 164.086,116.737 164.086,114.189 173.316,104.96   166.076,104.96  " />
        <polygon style="fill:#3A556A;"
            points="243.201,112.069 243.201,116.737 248.321,116.737 248.321,114.189 257.551,104.96   250.311,104.96  " />
        <polygon style="fill:#3A556A;"
            points="334.546,104.96 327.436,112.069 327.436,116.737 332.556,116.737 332.556,114.189   341.786,104.96  " />
    </g>
    <g>
        <path style="fill:#64798A;"
            d="M207.391,223.14l-5.995,18.149h-7.703l19.603-57.704h8.993l19.694,57.704h-7.968l-6.162-18.149   H207.391z M226.311,217.315l-5.647-16.609c-1.289-3.764-2.14-7.191-2.997-10.53h-0.175c-0.857,3.426-1.798,6.936-2.907,10.446   l-5.654,16.692H226.311z" />
        <path style="fill:#64798A;"
            d="M250.48,184.356c4.538-0.687,9.934-1.199,15.838-1.199c10.708,0,18.327,2.482,23.374,7.191   c5.138,4.709,8.135,11.387,8.135,20.719c0,9.418-2.914,17.124-8.303,22.433c-5.395,5.392-14.298,8.303-25.514,8.303   c-5.312,0-9.76-0.254-13.531-0.683V184.356z M257.932,235.381c1.882,0.341,4.622,0.429,7.536,0.429   c15.922,0,24.566-8.902,24.566-24.486c0.091-13.611-7.62-22.259-23.367-22.259c-3.855,0-6.769,0.341-8.735,0.771V235.381z" />
        <rect x="151.25" y="160.41" style="fill:#64798A;" width="189.025" height="7.68" />
        <rect x="151.25" y="256.87" style="fill:#64798A;" width="189.025" height="7.68" />
    </g>
</svg>